<svg width="23" height="20" viewBox="0 0 23 20" fill="none" xmlns="http://www.w3.org/2000/svg">
<path d="M7.67466 19.3526C16.0284 19.3526 20.5968 12.2792 20.5968 6.14738C20.5968 5.94611 20.5922 5.74678 20.5839 5.54745C21.4691 4.89377 22.2361 4.07985 22.8492 3.14387C22.0357 3.5135 21.1594 3.76315 20.2408 3.87443C21.1827 3.30283 21.8932 2.38991 22.2386 1.30731C21.3439 1.84906 20.369 2.22976 19.3544 2.43363C18.9242 1.96794 18.4089 1.59808 17.8393 1.34619C17.2698 1.0943 16.6576 0.965564 16.0395 0.967677C13.5307 0.967677 11.4969 3.04614 11.4969 5.60841C11.4969 5.97224 11.5365 6.32639 11.614 6.66699C7.83977 6.47347 4.4944 4.6253 2.25309 1.81822C1.85042 2.52272 1.63777 3.32875 1.63789 4.1502C1.63789 5.76033 2.44033 7.18177 3.65968 8.01393C2.94021 7.99186 2.23572 7.79301 1.60284 7.43335C1.60099 7.45271 1.60099 7.47206 1.60099 7.49141C1.60099 9.74017 3.16714 11.6164 5.24427 12.0422C4.57492 12.2281 3.87448 12.2552 3.19389 12.1215C3.7722 13.9658 5.44903 15.3079 7.4367 15.3456C5.81584 16.6401 3.8336 17.3383 1.79653 17.3322C1.42943 17.3322 1.06787 17.3109 0.712769 17.2683C2.80084 18.635 5.21353 19.3573 7.67466 19.3526Z" fill="white"/>
</svg>
