<svg width="23" height="19" viewBox="0 0 23 19" fill="none" xmlns="http://www.w3.org/2000/svg">
<path d="M19.5889 1.77672C18.1538 1.08568 16.6393 0.592915 15.0833 0.310769C15.0691 0.307869 15.0544 0.309773 15.0413 0.316208C15.0282 0.322643 15.0174 0.333275 15.0104 0.346571C14.8167 0.709431 14.6009 1.18357 14.4496 1.5561C12.7723 1.28884 11.066 1.28884 9.38868 1.5561C9.22033 1.14225 9.03034 0.738462 8.81959 0.346571C8.81232 0.333572 8.80146 0.323192 8.78846 0.3168C8.77545 0.310408 8.7609 0.308305 8.74672 0.310769C7.19058 0.592329 5.67597 1.08512 4.24104 1.77672C4.22877 1.78232 4.21845 1.79179 4.21153 1.80382C1.34118 6.30134 0.554412 10.6886 0.940877 15.0216C0.941936 15.0322 0.945014 15.0424 0.949926 15.0517C0.954838 15.061 0.961484 15.0692 0.96947 15.0758C2.64039 16.3745 4.50955 17.3659 6.49711 18.0077C6.51112 18.0119 6.52603 18.0116 6.53987 18.0068C6.55371 18.0019 6.56582 17.9928 6.57459 17.9806C7.00072 17.371 7.38072 16.7275 7.70539 16.0511C7.72476 16.0115 7.70631 15.9641 7.66757 15.9486C7.07121 15.7091 6.49385 15.4205 5.94094 15.0854C5.9308 15.0793 5.92227 15.0706 5.91611 15.0602C5.90994 15.0497 5.90633 15.0379 5.9056 15.0256C5.90487 15.0133 5.90704 15.0011 5.91192 14.9899C5.9168 14.9787 5.92423 14.969 5.93356 14.9616C6.04977 14.8706 6.16599 14.7758 6.27667 14.68C6.28658 14.6715 6.29859 14.666 6.31132 14.6643C6.32404 14.6626 6.33697 14.6647 6.34861 14.6703C9.97068 16.4043 13.8934 16.4043 17.4731 14.6703C17.4848 14.6644 17.4978 14.662 17.5107 14.6636C17.5236 14.6651 17.5358 14.6705 17.5459 14.679C17.6566 14.7748 17.7719 14.8706 17.8891 14.9616C17.9296 14.9935 17.9259 15.0584 17.8835 15.0854C17.332 15.4241 16.7583 15.7096 16.156 15.9476C16.1466 15.9513 16.1382 15.9571 16.1311 15.9645C16.1241 15.9719 16.1186 15.9808 16.115 15.9905C16.1115 16.0003 16.1099 16.0107 16.1104 16.0212C16.111 16.0316 16.1136 16.0418 16.1181 16.0511C16.4502 16.7265 16.8302 17.37 17.248 17.9796C17.2565 17.9922 17.2685 18.0017 17.2824 18.0068C17.2963 18.0118 17.3114 18.0121 17.3255 18.0077C19.3164 17.368 21.1886 16.3765 22.8614 15.0758C22.8697 15.0696 22.8766 15.0617 22.8817 15.0525C22.8868 15.0433 22.8899 15.0331 22.891 15.0226C23.3521 10.0132 22.118 5.66174 19.6175 1.80478C19.6116 1.79209 19.6014 1.78211 19.5889 1.77672ZM8.24681 12.3829C7.15659 12.3829 6.2573 11.333 6.2573 10.0422C6.2573 8.75234 7.13907 7.70246 8.24681 7.70246C9.36285 7.70246 10.2538 8.76201 10.2363 10.0422C10.2363 11.333 9.35455 12.3838 8.24681 12.3838V12.3829ZM15.6025 12.3829C14.5114 12.3829 13.613 11.333 13.613 10.0422C13.613 8.75234 14.4939 7.70246 15.6025 7.70246C16.7186 7.70246 17.6096 8.76201 17.5921 10.0422C17.5921 11.333 16.7195 12.3838 15.6025 12.3838V12.3829Z" fill="white"/>
</svg>
