<svg width="21" height="22" viewBox="0 0 21 22" fill="none" xmlns="http://www.w3.org/2000/svg">
<path d="M12.0006 1.375V2.14328C15.3992 2.63785 18.0009 5.33672 18.0009 8.59375V10.0289C18.0009 11.9797 18.7275 13.8746 20.0541 15.4L20.7526 16.1992C21.0245 16.5086 21.0761 16.934 20.8885 17.2906C20.701 17.6473 20.3073 17.875 19.876 17.875H1.12506C0.692387 17.875 0.298383 17.6473 0.111061 17.2906C-0.0763077 16.934 -0.0236176 16.5086 0.246583 16.1992L0.945524 15.4C2.27543 13.8746 3.00016 11.9797 3.00016 10.0289V8.59375C3.00016 5.33672 5.60185 2.63785 9.00045 2.14328V1.375C9.00045 0.615742 9.6708 0 10.5005 0C11.3303 0 12.0006 0.615742 12.0006 1.375ZM10.1255 4.125C7.43475 4.125 5.25027 6.12734 5.25027 8.59375V10.0289C5.25027 12.0871 4.59961 14.0938 3.38971 15.8125H17.6118C16.4024 14.0938 15.7508 12.0871 15.7508 10.0289V8.59375C15.7508 6.12734 13.5663 4.125 10.8755 4.125H10.1255ZM13.5007 19.25C13.5007 19.9418 13.1866 20.6809 12.6241 21.1965C12.0615 21.7121 11.2553 22 10.5005 22C9.70361 22 8.93951 21.7121 8.37699 21.1965C7.81446 20.6809 7.50038 19.9418 7.50038 19.25H13.5007Z" fill="white"/>
</svg>
