<svg width="21" height="18" viewBox="0 0 21 18" fill="none" xmlns="http://www.w3.org/2000/svg">
<path fill-rule="evenodd" clip-rule="evenodd" d="M16.0286 0.873891L19.3194 3.92099C20.2394 4.73254 20.277 6.08027 19.4035 6.93472L8.59414 16.9434C8.20264 17.3029 7.68951 17.5267 7.14088 17.5773L2.13255 17.9999H2.02445C1.70521 18.0016 1.39837 17.8856 1.17171 17.6774C0.918339 17.4437 0.790656 17.1175 0.823413 16.7877L1.33986 12.1504C1.39451 11.6424 1.63623 11.1672 2.02445 10.8047L12.8338 0.796046C13.7656 0.0671354 15.1395 0.100612 16.0286 0.873891ZM12.0176 4.65493L15.2364 7.6353L17.6384 5.46675L14.3596 2.43078L12.0176 4.65493Z" fill="#334253"/>
</svg>
