<svg width="21" height="22" viewBox="0 0 21 22" fill="none" xmlns="http://www.w3.org/2000/svg">
<path d="M10.5 21.9999C8.4233 21.9999 6.39323 21.3548 4.66652 20.1461C2.9398 18.9374 1.59399 17.2194 0.799269 15.2095C0.0045495 13.1995 -0.203386 10.9878 0.201759 8.85397C0.606904 6.72019 1.60693 4.76019 3.07538 3.22182C4.54383 1.68345 6.41475 0.635802 8.45155 0.211366C10.4884 -0.21307 12.5996 0.00476611 14.5182 0.837327C16.4368 1.66989 18.0767 3.07978 19.2304 4.88871C20.3842 6.69764 21 8.82437 21 11C21 13.9173 19.8938 16.7152 17.9246 18.7781C15.9555 20.841 13.2848 21.9999 10.5 21.9999ZM10.5 1.69231C8.74279 1.69231 7.02504 2.23819 5.56398 3.26093C4.10291 4.28367 2.96414 5.73732 2.29169 7.43807C1.61923 9.13883 1.44329 11.0103 1.7861 12.8158C2.12892 14.6213 2.9751 16.2798 4.21763 17.5815C5.46017 18.8832 7.04325 19.7696 8.7667 20.1288C10.4901 20.4879 12.2765 20.3036 13.9 19.5991C15.5234 18.8946 16.911 17.7016 17.8873 16.171C18.8635 14.6404 19.3846 12.8408 19.3846 11C19.3846 8.53141 18.4486 6.16398 16.7824 4.41845C15.1162 2.67293 12.8563 1.69231 10.5 1.69231Z" fill="white"/>
<path d="M10.5 11.8467C9.70128 11.8467 8.92048 11.5985 8.25636 11.1337C7.59224 10.6688 7.07462 10.008 6.76896 9.23496C6.4633 8.46189 6.38332 7.61123 6.53915 6.79055C6.69497 5.96986 7.0796 5.21601 7.64439 4.62433C8.20918 4.03265 8.92876 3.62971 9.71215 3.46647C10.4955 3.30322 11.3075 3.387 12.0455 3.70722C12.7834 4.02744 13.4141 4.5697 13.8579 5.26545C14.3016 5.96119 14.5385 6.77916 14.5385 7.61593C14.5385 8.73799 14.113 9.8141 13.3556 10.6075C12.5983 11.4009 11.5711 11.8467 10.5 11.8467ZM10.5 5.07747C10.0208 5.07747 9.55229 5.22635 9.15382 5.50528C8.75535 5.78421 8.44478 6.18066 8.26138 6.6445C8.07798 7.10834 8.03 7.61874 8.12349 8.11115C8.21699 8.60356 8.44776 9.05587 8.78664 9.41088C9.12551 9.76589 9.55726 10.0077 10.0273 10.1056C10.4973 10.2035 10.9845 10.1533 11.4273 9.96115C11.87 9.76902 12.2485 9.44366 12.5147 9.02621C12.781 8.60877 12.9231 8.11798 12.9231 7.61593C12.9231 6.94269 12.6678 6.29702 12.2134 5.82097C11.759 5.34492 11.1427 5.07747 10.5 5.07747Z" fill="white"/>
<path d="M18.2137 17.769C18.1016 17.7698 17.9905 17.7461 17.8876 17.6995C17.7847 17.6529 17.6922 17.5843 17.616 17.4982C16.7587 16.5185 15.7166 15.736 14.5557 15.2C13.3948 14.664 12.1404 14.3863 10.8718 14.3844H10.1287C7.76393 14.379 5.49001 15.338 3.78831 17.0582C3.63108 17.1941 3.43061 17.2627 3.22711 17.2503C3.02361 17.2378 2.83214 17.1452 2.6911 16.991C2.55006 16.8368 2.46988 16.6325 2.46665 16.4189C2.46343 16.2054 2.53738 15.9985 2.67369 15.8397C4.67344 13.8149 7.34752 12.6858 10.1287 12.6921H10.8718C12.3629 12.6956 13.8373 13.0221 15.2023 13.6512C16.5672 14.2802 17.7932 15.1982 18.8033 16.3474C18.91 16.468 18.9809 16.6185 19.0073 16.7806C19.0337 16.9426 19.0144 17.1092 18.9519 17.26C18.8893 17.4108 18.7862 17.5393 18.6551 17.6296C18.524 17.72 18.3706 17.7684 18.2137 17.769Z" fill="white"/>
</svg>
