<svg width="19" height="20" viewBox="0 0 19 20" fill="none" xmlns="http://www.w3.org/2000/svg">
<path d="M9.74862 5.37866C7.27539 5.37866 5.22614 7.49144 5.22614 10.1231C5.22614 12.7549 7.24006 14.8676 9.74862 14.8676C12.2572 14.8676 14.2711 12.7178 14.2711 10.1231C14.2711 7.52851 12.2219 5.37866 9.74862 5.37866ZM9.74862 13.1626C8.15869 13.1626 6.8514 11.7911 6.8514 10.1231C6.8514 8.45517 8.15869 7.08371 9.74862 7.08371C11.3386 7.08371 12.6458 8.45517 12.6458 10.1231C12.6458 11.7911 11.3386 13.1626 9.74862 13.1626Z" fill="white"/>
<path d="M14.4477 6.34259C15.0135 6.34259 15.4723 5.86134 15.4723 5.26767C15.4723 4.67401 15.0135 4.19275 14.4477 4.19275C13.8818 4.19275 13.423 4.67401 13.423 5.26767C13.423 5.86134 13.8818 6.34259 14.4477 6.34259Z" fill="white"/>
<path d="M17.0976 2.48737C16.1789 1.48658 14.8717 0.967651 13.3877 0.967651H6.10934C3.03546 0.967651 0.986206 3.1175 0.986206 6.34227V13.9409C0.986206 15.5347 1.48085 16.9062 2.47015 17.907C3.42411 18.8707 4.69606 19.3525 6.14467 19.3525H13.3524C14.8717 19.3525 16.1436 18.8336 17.0622 17.907C18.0162 16.9432 18.5109 15.5718 18.5109 13.9779V6.34227C18.5109 4.78548 18.0162 3.45109 17.0976 2.48737ZM16.9562 13.9779C16.9562 15.127 16.5676 16.0536 15.9316 16.6838C15.2956 17.3139 14.4123 17.6475 13.3524 17.6475H6.14467C5.08471 17.6475 4.20141 17.3139 3.56544 16.6838C2.92946 16.0166 2.61148 15.0899 2.61148 13.9409V6.34227C2.61148 5.23028 2.92946 4.30362 3.56544 3.63643C4.16608 3.0063 5.08471 2.6727 6.14467 2.6727H13.4231C14.483 2.6727 15.3663 3.0063 16.0023 3.67349C16.6029 4.34069 16.9562 5.26734 16.9562 6.34227V13.9779Z" fill="white"/>
</svg>
