<svg width="21" height="20" viewBox="0 0 21 20" fill="none" xmlns="http://www.w3.org/2000/svg">
<path d="M21 18.7865L14.8039 12.8802C15.9414 11.526 16.625 9.80208 16.625 7.92708C16.625 3.54688 12.9008 0 8.3125 0C3.71875 0 0 3.55208 0 7.92708C0 12.3021 3.72422 15.8542 8.3125 15.8542C10.2922 15.8542 12.1078 15.1927 13.5352 14.0938L19.7258 20L21 18.7865ZM3.05156 12.9479C1.64609 11.6094 0.875 9.82812 0.875 7.93229C0.875 6.03646 1.65156 4.25521 3.05156 2.91667C4.45156 1.57812 6.32734 0.833333 8.3125 0.833333C10.2977 0.833333 12.168 1.57292 13.5734 2.91146C14.9789 4.25 15.75 6.03125 15.75 7.92708C15.75 9.82292 14.9734 11.6042 13.5734 12.9427C12.168 14.2812 10.2977 15.0208 8.3125 15.0208C6.32734 15.026 4.45703 14.2865 3.05156 12.9479Z" fill="white"/>
</svg>
